<svg xmlns="http://www.w3.org/2000/svg" viewBox="0 0 100 100" width="100" height="100">
  <defs>
    <linearGradient id="g" gradientUnits="userSpaceOnUse" x1="6" y1="20" x2="94" y2="40"><stop offset="0" stop-color="#1aa7e8"/><stop offset="0.5" stop-color="#5b3fd6"/><stop offset="1" stop-color="#e0218a"/></linearGradient>
  </defs>
  <!-- bready croissant: 5 segments, gradient blue -> purple -> magenta -->
  <path d="M 4.30 70.06 A 46.00 46.00 0 0 1 13.69 47.06 L 34.68 63.39 A 121.90 121.90 0 0 0 6.77 70.34 Z" fill="url(#g)" stroke="#2a1a4a" stroke-width="1.0" stroke-linejoin="round"/>
    <path d="M 15.42 44.96 A 46.00 46.00 0 0 1 35.40 31.68 L 45.71 62.50 A 121.90 121.90 0 0 0 36.21 63.20 Z" fill="url(#g)" stroke="#2a1a4a" stroke-width="1.0" stroke-linejoin="round"/>
    <path d="M 38.01 30.89 A 46.00 46.00 0 0 1 61.99 30.89 L 53.46 62.47 A 121.90 121.90 0 0 0 46.54 62.47 Z" fill="url(#g)" stroke="#2a1a4a" stroke-width="1.0" stroke-linejoin="round"/>
    <path d="M 64.60 31.68 A 46.00 46.00 0 0 1 84.58 44.96 L 63.79 63.20 A 121.90 121.90 0 0 0 54.29 62.50 Z" fill="url(#g)" stroke="#2a1a4a" stroke-width="1.0" stroke-linejoin="round"/>
    <path d="M 86.31 47.06 A 46.00 46.00 0 0 1 95.70 70.06 L 93.23 70.34 A 121.90 121.90 0 0 0 65.32 63.39 Z" fill="url(#g)" stroke="#2a1a4a" stroke-width="1.0" stroke-linejoin="round"/>
</svg>
